<svg width="38" height="25" viewBox="0 0 38 25" fill="none" xmlns="http://www.w3.org/2000/svg">
<g filter="url(#filter0_d_80_49)">
<path d="M33.875 16.8749V0.774902L4.225 0.774902L4.225 16.8749L33.875 16.8749Z" fill="#28357F"/>
</g>
<path d="M9.53533 3.95525C9.25533 3.74525 8.84533 3.63525 8.31533 3.63525H7.06533L7.06533 8.13525H7.79533L7.79533 6.29525H8.37533C8.88533 6.29525 9.27533 6.18525 9.54533 5.96525C9.82533 5.73525 9.96533 5.39525 9.96533 4.96525C9.96533 4.53525 9.81533 4.19525 9.52533 3.96525L9.53533 3.95525ZM7.80533 4.30525H8.37533C8.68533 4.30525 8.90533 4.35525 9.04533 4.46525C9.17533 4.56525 9.23533 4.72525 9.23533 4.94525C9.23533 5.15525 9.17533 5.31525 9.05533 5.42525C8.92533 5.53525 8.73533 5.59525 8.48533 5.59525H7.80533V4.30525Z" fill="#F5F1E8"/>
<path d="M12.5349 6.11525C12.7449 6.02525 12.9249 5.89525 13.0449 5.73525C13.2049 5.52525 13.2849 5.25525 13.2849 4.93525C13.2849 4.50525 13.1349 4.17525 12.8449 3.95525C12.5649 3.74525 12.1549 3.63525 11.6249 3.63525H10.2949V8.13525H11.0249V6.24525H11.7749L12.7449 8.13525H13.5649L12.5249 6.11525H12.5349ZM12.5449 4.94525C12.5449 5.15525 12.4849 5.30525 12.3649 5.41525C12.2349 5.52525 12.0549 5.58525 11.7949 5.58525H11.0249V4.32525H11.6749C11.9849 4.32525 12.2049 4.37525 12.3449 4.48525C12.4749 4.58525 12.5349 4.73525 12.5349 4.95525L12.5449 4.94525Z" fill="#F5F1E8"/>
<path d="M16.6851 7.45525V8.13525H13.8751V3.63525L16.5951 3.63525V4.31525H14.6051V5.42525H16.0451V6.10525H14.6051V7.45525H16.6851Z" fill="#F5F1E8"/>
<path d="M20.9551 3.63525V8.13525H20.2551V5.02525L19.2451 8.13525H18.6651L17.6551 5.01525V8.13525H16.9551V3.63525L17.9351 3.63525L18.9551 6.78525L19.9751 3.63525H20.9551Z" fill="#F5F1E8"/>
<path d="M22.375 8.13525V3.63525H21.645V8.13525H22.375Z" fill="#F5F1E8"/>
<path d="M26.3652 3.63525V6.60525C26.3652 7.11525 26.2152 7.50525 25.9352 7.78525C25.6552 8.06525 25.2452 8.20525 24.7152 8.20525C24.1852 8.20525 23.7852 8.06525 23.4952 7.78525C23.2052 7.50525 23.0652 7.10525 23.0652 6.60525V3.63525H23.7952V6.60525C23.7952 6.91525 23.8752 7.13525 24.0252 7.29525C24.1752 7.45525 24.4052 7.52525 24.7152 7.52525C25.0252 7.52525 25.2452 7.44525 25.4052 7.29525C25.5552 7.13525 25.6352 6.91525 25.6352 6.60525V3.63525H26.3652Z" fill="#F5F1E8"/>
<path d="M31.0151 3.63525V8.13525H30.3251V5.02525L29.3051 8.13525H28.7351L27.7251 5.01525V8.13525H27.0251V3.63525L28.0051 3.63525L29.0251 6.78525L30.0451 3.63525H31.0151Z" fill="#F5F1E8"/>
<defs>
<filter id="filter0_d_80_49" x="0.225098" y="0.774902" width="37.6499" height="24.1001" filterUnits="userSpaceOnUse" color-interpolation-filters="sRGB">
<feFlood flood-opacity="0" result="BackgroundImageFix"/>
<feColorMatrix in="SourceAlpha" type="matrix" values="0 0 0 0 0 0 0 0 0 0 0 0 0 0 0 0 0 0 127 0" result="hardAlpha"/>
<feOffset dy="4"/>
<feGaussianBlur stdDeviation="2"/>
<feComposite in2="hardAlpha" operator="out"/>
<feColorMatrix type="matrix" values="0 0 0 0 0 0 0 0 0 0 0 0 0 0 0 0 0 0 0.15 0"/>
<feBlend mode="normal" in2="BackgroundImageFix" result="effect1_dropShadow_80_49"/>
<feBlend mode="normal" in="SourceGraphic" in2="effect1_dropShadow_80_49" result="shape"/>
</filter>
</defs>
</svg>
